<svg width="185" height="202" viewBox="0 0 185 202" fill="currentColor" xmlns="http://www.w3.org/2000/svg">
<path fill-rule="evenodd" clip-rule="evenodd" d="M2.34315 2.34315C0 4.68629 0 8.45753 0 16V175C0 182.542 0 186.314 2.34315 188.657C4.68629 191 8.45753 191 16 191H165.686C167.808 191 169.843 191.843 171.343 193.343C177.155 199.155 180.061 202.061 182.531 201.039C185 200.016 185 195.906 185 187.686V175V171V16C185 8.45753 185 4.68629 182.657 2.34315C180.314 0 176.542 0 169 0H16C8.45753 0 4.68629 0 2.34315 2.34315Z" fill="currentColor"/>
</svg>
