<svg width="28" height="28" viewBox="0 0 28 28" fill="none" xmlns="http://www.w3.org/2000/svg">
<path d="M23.3359 14.3201C23.3359 14.763 23.0068 15.1291 22.5797 15.1871L22.4609 15.1951L4.96094 15.1951C4.47769 15.1951 4.08594 14.8033 4.08594 14.3201C4.08594 13.8771 4.41512 13.511 4.84221 13.4531L4.96094 13.4451L22.4609 13.4451C22.9442 13.4451 23.3359 13.8368 23.3359 14.3201Z" fill="none"/>
<path d="M12.633 20.7284C12.9755 21.0694 12.9766 21.6234 12.6357 21.9658C12.3257 22.2771 11.8397 22.3064 11.4966 22.053L11.3982 21.9685L4.33991 14.9405C4.02766 14.6296 3.99926 14.1418 4.25471 13.7987L4.33986 13.7004L11.3982 6.67126C11.7406 6.33026 12.2946 6.33141 12.6356 6.67382C12.9456 6.98511 12.9729 7.47128 12.718 7.8133L12.6331 7.91126L6.19769 14.3208L12.633 20.7284Z" fill="none"/>
</svg>
