<svg width="24" height="24" viewBox="0 0 24 24" fill="none" xmlns="http://www.w3.org/2000/svg">
<path d="M0 12C0 5.37258 5.37258 0 12 0C18.6274 0 24 5.37258 24 12C24 18.6274 18.6274 24 12 24C5.37258 24 0 18.6274 0 12Z" fill="#FF6347"/>
<path d="M17.3854 9.55024L10.7854 16.1502C10.728 16.2079 10.6597 16.2537 10.5844 16.2849C10.5092 16.3161 10.4286 16.3322 10.3472 16.3322C10.2657 16.3322 10.1851 16.3161 10.1099 16.2849C10.0347 16.2537 9.96637 16.2079 9.90889 16.1502L7.02139 13.2627C6.96383 13.2052 6.91817 13.1369 6.88702 13.0617C6.85588 12.9865 6.83984 12.9059 6.83984 12.8245C6.83984 12.7431 6.85588 12.6625 6.88702 12.5873C6.91817 12.5121 6.96383 12.4437 7.02139 12.3862C7.07894 12.3286 7.14727 12.283 7.22247 12.2518C7.29767 12.2207 7.37827 12.2046 7.45967 12.2046C7.54106 12.2046 7.62166 12.2207 7.69686 12.2518C7.77206 12.283 7.84039 12.3286 7.89795 12.3862L10.3477 14.8359L16.5099 8.67471C16.6262 8.55847 16.7838 8.49316 16.9482 8.49316C17.1126 8.49316 17.2702 8.55847 17.3865 8.67471C17.5027 8.79095 17.568 8.9486 17.568 9.11299C17.568 9.27737 17.5027 9.43503 17.3865 9.55127L17.3854 9.55024Z" fill="white"/>
</svg>
