<svg width="32" height="32" viewBox="0 0 32 32" fill="none" xmlns="http://www.w3.org/2000/svg">
<path fill-rule="evenodd" clip-rule="evenodd" d="M16.0013 4.66663C9.75197 4.66663 4.66797 9.75063 4.66797 16C4.66797 22.2493 9.75197 27.3333 16.0013 27.3333C22.2506 27.3333 27.3346 22.2493 27.3346 16C27.3346 9.75063 22.2506 4.66663 16.0013 4.66663ZM16.0013 29.3333C8.6493 29.3333 2.66797 23.352 2.66797 16C2.66797 8.64796 8.6493 2.66663 16.0013 2.66663C23.3533 2.66663 29.3346 8.64796 29.3346 16C29.3346 23.352 23.3533 29.3333 16.0013 29.3333Z" fill="none"/>
<path fill-rule="evenodd" clip-rule="evenodd" d="M16.008 22.3944C15.2706 22.3944 14.668 21.7984 14.668 21.0611C14.668 20.3238 15.2586 19.7278 15.9946 19.7278H16.008C16.7453 19.7278 17.3413 20.3238 17.3413 21.0611C17.3413 21.7984 16.7453 22.3944 16.008 22.3944Z" fill="none"/>
<path fill-rule="evenodd" clip-rule="evenodd" d="M15.9922 17.8306C15.4402 17.8306 14.9922 17.3826 14.9922 16.8306V10.9386C14.9922 10.3866 15.4402 9.9386 15.9922 9.9386C16.5442 9.9386 16.9922 10.3866 16.9922 10.9386V16.8306C16.9922 17.3826 16.5442 17.8306 15.9922 17.8306Z" fill="none"/>
</svg>
