<svg width="20" height="21" viewBox="0 0 20 21" fill="none" xmlns="http://www.w3.org/2000/svg">
<path fill-rule="evenodd" clip-rule="evenodd" d="M9.81443 11.7207C9.25693 11.7207 8.7011 11.5366 8.2361 11.1682L4.4986 8.15491C4.22943 7.93824 4.18777 7.54408 4.4036 7.27574C4.6211 7.00824 5.01443 6.96574 5.28277 7.18158L9.01693 10.1916C9.4861 10.5632 10.1469 10.5632 10.6194 10.1882L14.3161 7.18324C14.5844 6.96408 14.9778 7.00574 15.1961 7.27408C15.4136 7.54158 15.3728 7.93491 15.1053 8.15324L11.4019 11.1632C10.9336 11.5349 10.3736 11.7207 9.81443 11.7207Z" fill="none"/>
<mask id="mask0_5386_18678" style="mask-type:luminance" maskUnits="userSpaceOnUse" x="0" y="2" width="19" height="17">
<path fill-rule="evenodd" clip-rule="evenodd" d="M0.835938 2.16675H18.7525V18.4167H0.835938V2.16675Z" fill="white"/>
</mask>
<g mask="url(#mask0_5386_18678)">
<path fill-rule="evenodd" clip-rule="evenodd" d="M5.70177 17.1667H13.8851C13.8868 17.1651 13.8934 17.1667 13.8984 17.1667C14.8493 17.1667 15.6926 16.8267 16.3393 16.1809C17.0901 15.4334 17.5026 14.3592 17.5026 13.1567V7.43341C17.5026 5.10591 15.9809 3.41675 13.8851 3.41675H5.70344C3.6076 3.41675 2.08594 5.10591 2.08594 7.43341V13.1567C2.08594 14.3592 2.49927 15.4334 3.24927 16.1809C3.89594 16.8267 4.7401 17.1667 5.6901 17.1667H5.70177ZM5.6876 18.4167C4.40177 18.4167 3.25344 17.9501 2.36677 17.0667C1.37927 16.0817 0.835938 14.6934 0.835938 13.1567V7.43341C0.835938 4.43091 2.92844 2.16675 5.70344 2.16675H13.8851C16.6601 2.16675 18.7526 4.43091 18.7526 7.43341V13.1567C18.7526 14.6934 18.2093 16.0817 17.2218 17.0667C16.3359 17.9492 15.1868 18.4167 13.8984 18.4167H13.8851H5.70344H5.6876Z" fill="none"/>
</g>
</svg>
