<svg width="28" height="28" viewBox="0 0 28 28" fill="none" xmlns="http://www.w3.org/2000/svg">
<path fill-rule="evenodd" clip-rule="evenodd" d="M10.416 19.1218H16.6998C17.1734 19.1218 17.5661 18.7252 17.5661 18.2468C17.5661 17.7685 17.1734 17.3835 16.6998 17.3835H10.416C9.94237 17.3835 9.54963 17.7685 9.54963 18.2468C9.54963 18.7252 9.94237 19.1218 10.416 19.1218ZM14.3203 11.5502H10.416C9.94237 11.5502 9.54963 11.9468 9.54963 12.4252C9.54963 12.9035 9.94237 13.2885 10.416 13.2885H14.3203C14.7939 13.2885 15.1866 12.9035 15.1866 12.4252C15.1866 11.9468 14.7939 11.5502 14.3203 11.5502ZM22.5637 10.53C22.8352 10.5269 23.1308 10.5235 23.3995 10.5235C23.6882 10.5235 23.9193 10.7568 23.9193 11.0485V20.4285C23.9193 23.3218 21.5975 25.6668 18.7328 25.6668H9.53808C6.53478 25.6668 4.08594 23.2052 4.08594 20.1718V7.59516C4.08594 4.70183 6.41927 2.3335 9.29551 2.3335H15.4638C15.7642 2.3335 15.9952 2.5785 15.9952 2.87016V6.62683C15.9952 8.76183 17.7394 10.5118 19.8533 10.5235C20.347 10.5235 20.7823 10.5272 21.1632 10.5304C21.4596 10.5329 21.7231 10.5352 21.9556 10.5352C22.12 10.5352 22.3331 10.5327 22.5637 10.53ZM22.8822 8.82716C21.9327 8.83066 20.8134 8.82716 20.0083 8.819C18.7307 8.819 17.6784 7.75616 17.6784 6.46583V3.3905C17.6784 2.88766 18.2825 2.638 18.6279 3.00083C19.2538 3.65809 20.1141 4.56185 20.9702 5.46118C21.8222 6.35614 22.67 7.24672 23.2784 7.88566C23.6157 8.23916 23.3685 8.826 22.8822 8.82716Z" fill="#FF6347"/>
</svg>
