<svg width="28" height="28" viewBox="0 0 28 28" fill="none" xmlns="http://www.w3.org/2000/svg">
<mask id="mask0_5921_12302" style="mask-type:luminance" maskUnits="userSpaceOnUse" x="3" y="2" width="21" height="24">
<path fill-rule="evenodd" clip-rule="evenodd" d="M3.5 2.34668H23.3942V25.5091H3.5V2.34668Z" fill="white"/>
</mask>
<g mask="url(#mask0_5921_12302)">
<path fill-rule="evenodd" clip-rule="evenodd" d="M8.83525 4.09668C6.90208 4.09668 5.29675 5.66235 5.25125 7.59318V20.0987C5.20925 22.0832 6.77258 23.7165 8.73841 23.7597H18.1686C20.1157 23.6897 21.6569 22.0832 21.6441 20.1045V9.72935L16.2377 4.09668H8.84925H8.83525ZM8.84925 25.5097H8.70225C5.77158 25.4467 3.43825 23.0107 3.50125 20.08V7.57218C3.57008 4.67768 5.95941 2.34668 8.83175 2.34668H8.85275H16.6099C16.8479 2.34668 17.0754 2.44351 17.2411 2.61501L23.1514 8.77151C23.3066 8.93368 23.3941 9.15185 23.3941 9.37701V20.0987C23.4127 23.0258 21.1307 25.4047 18.1989 25.5097H8.84925Z" fill="currentColor"/>
</g>
<path fill-rule="evenodd" clip-rule="evenodd" d="M13 19.4834C12.517 19.4834 12.125 19.0914 12.125 18.6084V11.5605C12.125 11.0775 12.517 10.6855 13 10.6855C13.483 10.6855 13.875 11.0775 13.875 11.5605V18.6084C13.875 19.0914 13.483 19.4834 13 19.4834Z" fill="currentColor"/>
<path fill-rule="evenodd" clip-rule="evenodd" d="M10.2653 15.1833C10.0425 15.1833 9.8185 15.0981 9.64817 14.9278C9.30634 14.5871 9.304 14.0341 9.64584 13.6911L12.3805 10.9424C12.7095 10.6123 13.2928 10.6123 13.6207 10.9424L16.3577 13.6911C16.6983 14.0341 16.6972 14.5871 16.3553 14.9278C16.0123 15.2684 15.4582 15.2684 15.1175 14.9254L13.0012 12.7998L10.8848 14.9254C10.7145 15.0981 10.4893 15.1833 10.2653 15.1833Z" fill="currentColor"/>
<path fill-rule="evenodd" clip-rule="evenodd" d="M22.5137 10.4815H19.3007C17.1645 10.4757 15.4297 8.735 15.4297 6.60233V3.2085C15.4297 2.7255 15.8217 2.3335 16.3047 2.3335C16.7877 2.3335 17.1797 2.7255 17.1797 3.2085V6.60233C17.1797 7.77366 18.1317 8.728 19.303 8.7315H22.5137C22.9967 8.7315 23.3887 9.1235 23.3887 9.6065C23.3887 10.0895 22.9967 10.4815 22.5137 10.4815Z" fill="currentColor"/>
</svg>
