<svg width="24" height="24" viewBox="0 0 24 24" fill="none" xmlns="http://www.w3.org/2000/svg">
<path d="M22.9982 12.474C22.9982 11.5511 22.9233 10.8776 22.7612 10.1792H12.2227V14.3447H18.4085C18.2839 15.3799 17.6104 16.9388 16.1138 17.9864L16.0928 18.1258L19.4249 20.7072L19.6558 20.7302C21.7759 18.7721 22.9982 15.8912 22.9982 12.474Z" fill="#4285F4"/>
<path d="M12.2225 23.4489C15.2531 23.4489 17.7973 22.4511 19.6556 20.73L16.1137 17.9862C15.1659 18.6472 13.8937 19.1087 12.2225 19.1087C9.25432 19.1087 6.73506 17.1507 5.83702 14.4443L5.70538 14.4555L2.24062 17.1369L2.19531 17.2629C4.0411 20.9295 7.83249 23.4489 12.2225 23.4489Z" fill="#34A853"/>
<path d="M5.83895 14.4445C5.602 13.7461 5.46486 12.9977 5.46486 12.2245C5.46486 11.4513 5.602 10.703 5.82649 10.0046L5.82021 9.85583L2.31203 7.13135L2.19725 7.18594C1.43651 8.70751 1 10.4162 1 12.2245C1 14.0329 1.43651 15.7415 2.19725 17.263L5.83895 14.4445Z" fill="#FBBC05"/>
<path d="M12.2226 5.34011C14.3302 5.34011 15.752 6.25053 16.5627 7.01136L19.7304 3.91837C17.7849 2.10998 15.2531 1 12.2226 1C7.83249 1 4.0411 3.51925 2.19531 7.18589L5.82455 10.0045C6.73506 7.29818 9.25432 5.34011 12.2226 5.34011Z" fill="#EB4335"/>
</svg>
