<svg width="36" height="36" viewBox="0 0 36 36" fill="none" xmlns="http://www.w3.org/2000/svg">
<path d="M34.8755 18.0001C34.8756 19.5577 34.4138 21.0804 33.5485 22.3755C32.6832 23.6706 31.4533 24.6801 30.0142 25.2762C28.5752 25.8723 26.9917 26.0282 25.464 25.7243C23.9364 25.4204 22.5331 24.6703 21.4318 23.5688L21.3854 23.5196L12.9549 13.9993C12.1656 13.2192 11.1632 12.6901 10.0739 12.4784C8.9846 12.2667 7.85699 12.3819 6.83301 12.8096C5.80903 13.2373 4.93443 13.9583 4.31927 14.8819C3.7041 15.8055 3.37587 16.8904 3.37587 18.0001C3.37587 19.1098 3.7041 20.1947 4.31927 21.1183C4.93443 22.0419 5.80903 22.7629 6.83301 23.1906C7.85699 23.6182 8.9846 23.7335 10.0739 23.5218C11.1632 23.3101 12.1656 22.7809 12.9549 22.0009L14.153 20.6481C14.3509 20.4243 14.6295 20.2883 14.9277 20.2699C15.2258 20.2516 15.519 20.3525 15.7428 20.5503C15.9666 20.7482 16.1026 21.0268 16.1209 21.325C16.1392 21.6231 16.0384 21.9163 15.8405 22.1401L14.6185 23.5196L14.5721 23.5688C13.4707 24.6701 12.0675 25.42 10.5399 25.7238C9.01237 26.0276 7.42901 25.8716 5.99009 25.2756C4.55117 24.6795 3.32131 23.6701 2.45603 22.3751C1.59075 21.0801 1.12891 19.5576 1.12891 18.0001C1.12891 16.4426 1.59075 14.9201 2.45603 13.6251C3.32131 12.33 4.55117 11.3207 5.99009 10.7246C7.42901 10.1285 9.01237 9.97255 10.5399 10.2763C12.0675 10.5801 13.4707 11.3301 14.5721 12.4313L14.6185 12.4806L23.049 22.0009C23.8382 22.7809 24.8406 23.3101 25.9299 23.5218C27.0193 23.7335 28.1469 23.6182 29.1709 23.1906C30.1948 22.7629 31.0694 22.0419 31.6846 21.1183C32.2998 20.1947 32.628 19.1098 32.628 18.0001C32.628 16.8904 32.2998 15.8055 31.6846 14.8819C31.0694 13.9583 30.1948 13.2373 29.1709 12.8096C28.1469 12.3819 27.0193 12.2667 25.9299 12.4784C24.8406 12.6901 23.8382 13.2192 23.049 13.9993L21.8508 15.3521C21.653 15.5759 21.3743 15.7119 21.0762 15.7302C20.7781 15.7486 20.4848 15.6477 20.2611 15.4498C20.0373 15.252 19.9013 14.9733 19.883 14.6752C19.8646 14.3771 19.9655 14.0839 20.1633 13.8601L21.3854 12.4806L21.4318 12.4313C22.5331 11.3299 23.9364 10.5798 25.464 10.2759C26.9917 9.97196 28.5752 10.1279 30.0142 10.724C31.4533 11.3201 32.6832 12.3295 33.5485 13.6247C34.4138 14.9198 34.8756 16.4425 34.8755 18.0001Z" fill="none"/>
</svg>
