<svg width="90" height="90" viewBox="0 0 90 90" fill="none" xmlns="http://www.w3.org/2000/svg">
<path d="M62.4714 17.0297C62.9412 16.5056 63.5097 16.0792 64.1444 15.7749C64.779 15.4706 65.4674 15.2943 66.1702 15.2562C66.8731 15.218 67.5765 15.3187 68.2404 15.5526C68.9042 15.7864 69.5155 16.1488 70.0393 16.619C73.965 20.1327 77.1043 24.4359 79.2516 29.2469C81.399 34.058 82.5059 39.2683 82.5 44.5368C82.5 65.2511 65.7107 82.0368 45 82.0368V71.3225C50.422 71.3226 55.7164 69.6772 60.1832 66.6039C64.65 63.5306 68.079 59.174 70.0169 54.1102C71.9547 49.0463 72.3102 43.5136 71.0363 38.2434C69.7623 32.9732 66.919 28.2136 62.8821 24.594C61.8247 23.6453 61.1874 22.3154 61.1104 20.8969C61.0334 19.4784 61.5229 18.0873 62.4714 17.0297Z" fill="url(#paint0_linear_3821_124002)"/>
<path d="M38.7464 7.55821C40.1344 7.35195 41.5479 7.69851 42.6831 8.52341C43.8183 9.3483 44.5845 10.5857 44.817 11.9695C45.0495 13.3533 44.7297 14.7732 43.9265 15.9237C43.1232 17.0743 41.9006 17.8638 40.5214 18.1225C34.2826 19.182 28.6202 22.4154 24.5373 27.2501C20.4543 32.0848 18.2144 38.2087 18.2143 44.5368C18.2143 51.6408 21.0363 58.4538 26.0596 63.4771C31.0829 68.5004 37.896 71.3225 45 71.3225V82.0368C24.2893 82.0368 7.5 65.251 7.5 44.5368C7.5 26.1618 20.8071 10.5725 38.7464 7.55821Z" fill="white"/>
<defs>
<linearGradient id="paint0_linear_3821_124002" x1="63.75" y1="15.2483" x2="45" y2="71.3204" gradientUnits="userSpaceOnUse">
<stop stop-color="white" stop-opacity="0"/>
<stop offset="1" stop-color="white"/>
</linearGradient>
</defs>
</svg>
