<svg width="80" height="80" viewBox="0 0 80 80" fill="none" xmlns="http://www.w3.org/2000/svg">
<path d="M55.5302 15.1377C55.9478 14.6718 56.4531 14.2928 57.0172 14.0223C57.5813 13.7518 58.1933 13.5951 58.818 13.5612C59.4427 13.5273 60.068 13.6168 60.6581 13.8247C61.2482 14.0325 61.7916 14.3547 62.2571 14.7726C65.7467 17.8959 68.5371 21.721 70.4459 25.9975C72.3546 30.2739 73.3386 34.9054 73.3333 39.5885C73.3333 58.0012 58.4095 72.9218 40 72.9218V63.398C44.8196 63.3981 49.5257 61.9355 53.4962 59.2037C57.4667 56.4718 60.5147 52.5993 62.2372 48.0981C63.9598 43.5969 64.2757 38.6789 63.1433 33.9943C62.011 29.3096 59.4835 25.0789 55.8952 21.8615C54.9553 21.0182 54.3888 19.8361 54.3203 18.5752C54.2519 17.3143 54.687 16.0778 55.5302 15.1377Z" fill="url(#paint0_linear_5416_11679)"/>
<path d="M34.4387 6.71849C35.6724 6.53515 36.9289 6.8432 37.9379 7.57644C38.947 8.30968 39.628 9.40956 39.8347 10.6396C40.0414 11.8697 39.7572 13.1318 39.0432 14.1545C38.3292 15.1773 37.2424 15.879 36.0164 16.109C30.4709 17.0507 25.4376 19.9249 21.8083 24.2224C18.179 28.5199 16.188 33.9633 16.1879 39.5883C16.1879 45.903 18.6964 51.959 23.1615 56.4242C27.6267 60.8893 33.6827 63.3978 39.9974 63.3978V72.9216C21.5879 72.9216 6.66406 58.001 6.66406 39.5883C6.66406 23.255 18.4926 9.39786 34.4387 6.71849Z" fill="#FF6347"/>
<defs>
<linearGradient id="paint0_linear_5416_11679" x1="56.6667" y1="13.5542" x2="40" y2="63.3961" gradientUnits="userSpaceOnUse">
<stop stop-color="#FF6347" stop-opacity="0"/>
<stop offset="1" stop-color="#FF6347"/>
</linearGradient>
</defs>
</svg>
