<svg width="160" height="160" viewBox="0 0 160 160" fill="none" xmlns="http://www.w3.org/2000/svg">
<path d="M68.6292 16.5362C68.6292 13.2946 71.257 10.6667 74.4986 10.6667H106.781C110.022 10.6667 112.65 13.2946 112.65 16.5362C112.65 19.7779 110.022 22.4057 106.781 22.4057H96.4638C96.4938 22.6461 96.5092 22.8909 96.5092 23.1394V32.2378C104.574 33.0484 112.413 35.5239 119.52 39.5402C128.943 44.8664 136.711 52.6947 141.963 62.1598C147.215 71.6249 149.747 82.3581 149.28 93.1726C148.813 103.987 145.364 114.462 139.315 123.439C133.266 132.415 124.852 139.544 115.004 144.038C105.156 148.531 94.2571 150.213 83.5126 148.899C74.716 147.823 66.3034 144.772 58.8918 140.006C56.1653 138.253 55.7567 134.533 57.7736 131.995C59.7904 129.457 63.4671 129.07 66.2366 130.755C71.9192 134.212 78.2916 136.434 84.938 137.247C93.5336 138.298 102.253 136.953 110.131 133.358C118.009 129.763 124.74 124.06 129.58 116.879C134.419 109.697 137.178 101.317 137.552 92.6658C137.926 84.0142 135.9 75.4277 131.698 67.8556C127.496 60.2835 121.283 54.0208 113.744 49.7599C106.205 45.499 97.6344 43.4059 88.9801 43.712C82.2884 43.9486 75.748 45.6126 69.7884 48.5662C66.8839 50.0057 63.2542 49.3035 61.4638 46.6012C59.6735 43.8988 60.4014 40.2278 63.269 38.7161C69.9464 35.1961 77.247 32.9939 84.7703 32.2378V23.1394C84.7703 22.8909 84.7857 22.6461 84.8157 22.4057H74.4986C71.257 22.4057 68.6292 19.7779 68.6292 16.5362Z" fill="white"/>
<path fill-rule="evenodd" clip-rule="evenodd" d="M58.8587 108.981C58.0431 107.57 57.3188 106.1 56.6937 104.579H16.5375C13.2958 104.579 10.668 101.951 10.668 98.7091C10.668 95.4674 13.2958 92.8396 16.5375 92.8396H54.0203C53.9773 92.1115 53.9554 91.3776 53.9554 90.6385C53.9554 89.8995 53.9773 89.1657 54.0205 88.4375H39.2817C36.0401 88.4375 33.4122 85.8096 33.4122 82.568C33.4122 79.3263 36.0401 76.6985 39.2817 76.6985H56.7C57.3261 75.1772 58.0515 73.7071 58.8681 72.2964H53.9554C50.7138 72.2964 48.086 69.6685 48.086 66.4269C48.086 63.1853 50.7138 60.5574 53.9554 60.5574H69.6461C75.5952 56.3962 82.834 53.9542 90.6397 53.9542C110.926 53.9542 127.324 70.3888 127.324 90.6385C127.324 110.925 110.926 127.323 90.6397 127.323C82.8277 127.323 75.5836 124.882 69.6317 120.72H34.1459C30.9043 120.72 28.2764 118.092 28.2764 114.85C28.2764 111.609 30.9043 108.981 34.1459 108.981H58.8587ZM102.342 104.248C102.782 104.505 103.259 104.652 103.773 104.652C104.69 104.652 105.607 104.175 106.12 103.295C106.891 102.011 106.487 100.323 105.167 99.5161L92.107 91.7391V74.7909C92.107 73.2502 90.8598 72.0396 89.3557 72.0396C87.8517 72.0396 86.6044 73.2502 86.6044 74.7909V93.3165C86.6044 94.2703 87.118 95.1507 87.9617 95.6643L102.342 104.248Z" fill="white"/>
<path d="M29.7438 60.5574C26.5022 60.5574 23.8743 63.1853 23.8743 66.4269C23.8743 69.6685 26.5022 72.2964 29.7438 72.2964H37.8143C41.056 72.2964 43.6838 69.6685 43.6838 66.4269C43.6838 63.1853 41.056 60.5574 37.8143 60.5574H29.7438Z" fill="white"/>
</svg>
