<svg width="28" height="28" viewBox="0 0 28 28" fill="none" xmlns="http://www.w3.org/2000/svg">
<path d="M12.0104 2.8938C12.0104 2.32651 12.4703 1.86664 13.0376 1.86664H18.6869C19.2542 1.86664 19.7141 2.32651 19.7141 2.8938C19.7141 3.46108 19.2542 3.92096 18.6869 3.92096H16.8815C16.8867 3.96302 16.8894 4.00587 16.8894 4.04935V5.64158C18.3007 5.78342 19.6726 6.21663 20.9162 6.9195C22.5654 7.85157 23.9247 9.22153 24.8438 10.8779C25.7629 12.5343 26.2061 14.4126 26.1243 16.3052C26.0425 18.1977 25.4389 20.0308 24.3803 21.6017C23.3218 23.1726 21.8494 24.4202 20.126 25.2066C18.4026 25.9929 16.4953 26.2873 14.615 26.0573C13.0756 25.869 11.6034 25.3351 10.3064 24.501C9.82922 24.1942 9.75772 23.5432 10.1107 23.099C10.4636 22.6549 11.107 22.5873 11.5917 22.8821C12.5861 23.487 13.7013 23.8759 14.8644 24.0182C16.3687 24.2022 17.8945 23.9667 19.2732 23.3376C20.6519 22.7085 21.8299 21.7105 22.6767 20.4537C23.5236 19.197 24.0064 17.7305 24.0719 16.2165C24.1373 14.7024 23.7828 13.1998 23.0475 11.8747C22.3122 10.5496 21.2248 9.45359 19.9054 8.70794C18.5861 7.96228 17.0863 7.59599 15.5718 7.64955C14.4008 7.69097 13.2562 7.98216 12.2133 8.49904C11.705 8.75095 11.0698 8.62807 10.7565 8.15516C10.4432 7.68225 10.5705 7.03981 11.0724 6.77528C12.2409 6.15928 13.5185 5.77389 14.8351 5.64158V4.04935C14.8351 4.00587 14.8378 3.96302 14.843 3.92096H13.0376C12.4703 3.92096 12.0104 3.46108 12.0104 2.8938Z" fill="white"/>
<path fill-rule="evenodd" clip-rule="evenodd" d="M10.3006 19.0716C10.1578 18.8247 10.0311 18.5675 9.9217 18.3012H2.89435C2.32706 18.3012 1.86719 17.8413 1.86719 17.274C1.86719 16.7068 2.32706 16.2469 2.89435 16.2469H9.45384C9.44631 16.1195 9.44249 15.991 9.44249 15.8617C9.44249 15.7324 9.44632 15.6039 9.45388 15.4765H6.87459C6.30731 15.4765 5.84743 15.0166 5.84743 14.4494C5.84743 13.8821 6.30731 13.4222 6.87459 13.4222H9.9228C10.0324 13.156 10.1593 12.8987 10.3022 12.6518H9.44249C8.87521 12.6518 8.41533 12.1919 8.41533 11.6247C8.41533 11.0574 8.87521 10.5975 9.44249 10.5975H12.1884C13.2295 9.86929 14.4962 9.44195 15.8622 9.44195C19.4124 9.44195 22.282 12.318 22.282 15.8617C22.282 19.4118 19.4124 22.2814 15.8622 22.2814C14.4951 22.2814 13.2274 21.8544 12.1858 21.1259H5.97583C5.40854 21.1259 4.94867 20.666 4.94867 20.0987C4.94867 19.5314 5.40854 19.0716 5.97583 19.0716H10.3006ZM17.9101 18.2434C17.9872 18.2884 18.0706 18.314 18.1605 18.314C18.321 18.314 18.4815 18.2306 18.5714 18.0765C18.7062 17.8518 18.6356 17.5565 18.4045 17.4153L16.119 16.0543V13.0884C16.119 12.8187 15.9008 12.6069 15.6375 12.6069C15.3743 12.6069 15.1561 12.8187 15.1561 13.0884V16.3303C15.1561 16.4973 15.2459 16.6513 15.3936 16.7412L17.9101 18.2434Z" fill="white"/>
<path d="M5.20546 10.5975C4.63817 10.5975 4.1783 11.0574 4.1783 11.6247C4.1783 12.1919 4.63817 12.6518 5.20546 12.6518H6.6178C7.18509 12.6518 7.64496 12.1919 7.64496 11.6247C7.64496 11.0574 7.18509 10.5975 6.6178 10.5975H5.20546Z" fill="white"/>
</svg>
