<svg width="80" height="80" viewBox="0 0 80 80" fill="none" xmlns="http://www.w3.org/2000/svg">
<path d="M34.3126 8.268C34.3126 6.64718 35.6266 5.33325 37.2474 5.33325H53.3885C55.0093 5.33325 56.3232 6.64718 56.3232 8.268C56.3232 9.88881 55.0093 11.2027 53.3885 11.2027H48.23C48.2449 11.3229 48.2527 11.4453 48.2527 11.5696V16.1188C52.285 16.5241 56.2048 17.7618 59.7579 19.77C64.4698 22.4331 68.3534 26.3472 70.9794 31.0798C73.6055 35.8123 74.8717 41.1789 74.638 46.5862C74.4043 51.9935 72.6799 57.2308 69.6553 61.7192C66.6308 66.2076 62.424 69.7721 57.5 72.0187C52.576 74.2654 47.1266 75.1066 41.7543 74.4494C37.3561 73.9114 33.1498 72.3861 29.4439 70.0029C28.0807 69.1262 27.8764 67.2662 28.8848 65.9972C29.8932 64.7283 31.7316 64.5351 33.1163 65.3775C35.9576 67.1058 39.1438 68.2168 42.467 68.6234C46.7649 69.1491 51.1244 68.4761 55.0636 66.6788C59.0028 64.8815 62.3682 62.0299 64.7879 58.4392C67.2075 54.8485 68.587 50.6586 68.774 46.3328C68.9609 42.007 67.948 37.7137 65.8471 33.9277C63.7463 30.1416 60.6394 27.0103 56.8699 24.8798C53.1005 22.7494 48.8153 21.7028 44.4881 21.8559C41.1422 21.9742 37.872 22.8062 34.8922 24.283C33.44 25.0027 31.6252 24.6516 30.73 23.3005C29.8348 21.9493 30.1988 20.1138 31.6326 19.3579C34.9713 17.5979 38.6215 16.4968 42.3832 16.1188V11.5696C42.3832 11.4453 42.3909 11.3229 42.4059 11.2027H37.2474C35.6266 11.2027 34.3126 9.88881 34.3126 8.268Z" fill="#FF6347"/>
<path fill-rule="evenodd" clip-rule="evenodd" d="M29.4274 54.4902C29.0196 53.785 28.6574 53.0499 28.3449 52.2892H8.26677C6.64596 52.2892 5.33203 50.9752 5.33203 49.3544C5.33203 47.7336 6.64596 46.4197 8.26678 46.4197H27.0082C26.9867 46.0556 26.9758 45.6887 26.9758 45.3191C26.9758 44.9497 26.9867 44.5827 27.0083 44.2186H19.6389C18.0181 44.2186 16.7042 42.9047 16.7042 41.2839C16.7042 39.663 18.0181 38.3491 19.6389 38.3491H28.3481C28.6611 37.5885 29.0238 36.8534 29.4321 36.1481H26.9758C25.355 36.1481 24.041 34.8341 24.041 33.2133C24.041 31.5925 25.355 30.2786 26.9758 30.2786H34.8211C37.7957 28.198 41.4151 26.977 45.3179 26.977C55.4611 26.977 63.6601 35.1943 63.6601 45.3191C63.6601 55.4623 55.4611 63.6613 45.3179 63.6613C41.4119 63.6613 37.7898 62.4411 34.8139 60.3597H17.071C15.4502 60.3597 14.1363 59.0458 14.1363 57.425C14.1363 55.8041 15.4502 54.4902 17.071 54.4902H29.4274ZM51.169 52.1241C51.3891 52.2525 51.6276 52.3258 51.8844 52.3258C52.3429 52.3258 52.8015 52.0874 53.0583 51.6472C53.4435 51.0052 53.2417 50.1615 52.5814 49.7579L46.0516 45.8694V37.3953C46.0516 36.625 45.4279 36.0197 44.6759 36.0197C43.9239 36.0197 43.3002 36.625 43.3002 37.3953V46.6581C43.3002 47.135 43.557 47.5752 43.9789 47.832L51.169 52.1241Z" fill="#FF6347"/>
<path d="M14.8699 30.2786C13.2491 30.2786 11.9352 31.5925 11.9352 33.2133C11.9352 34.8341 13.2491 36.1481 14.8699 36.1481H18.9052C20.526 36.1481 21.84 34.8341 21.84 33.2133C21.84 31.5925 20.526 30.2786 18.9052 30.2786H14.8699Z" fill="#FF6347"/>
</svg>
