<svg width="24" height="25" viewBox="0 0 24 25" fill="none" xmlns="http://www.w3.org/2000/svg">
<path fill-rule="evenodd" clip-rule="evenodd" d="M7.57266 4.01172C5.91466 4.01172 4.53966 5.35372 4.50066 7.00872V17.8397C4.47166 19.4867 5.77866 20.8387 7.41366 20.8667L7.56066 20.8657H15.5727C17.2147 20.8477 18.5537 19.4907 18.5517 17.8407V8.84172L13.9177 4.01172H7.58466H7.57266ZM7.39966 22.3667C4.92666 22.3237 2.95866 20.2867 3.00066 17.8267V6.99072C3.05766 4.50972 5.10666 2.51172 7.56966 2.51172H7.58766H14.2367C14.4407 2.51172 14.6357 2.59472 14.7777 2.74172L19.8437 8.02072C19.9767 8.15972 20.0517 8.34672 20.0517 8.53972V17.8397C20.0557 20.3087 18.0497 22.3397 15.5807 22.3657L7.39966 22.3667Z" fill="currentColor"/>
<path fill-rule="evenodd" clip-rule="evenodd" d="M13.7935 14.1643H8.89453C8.48053 14.1643 8.14453 13.8283 8.14453 13.4143C8.14453 13.0003 8.48053 12.6643 8.89453 12.6643H13.7935C14.2075 12.6643 14.5435 13.0003 14.5435 13.4143C14.5435 13.8283 14.2075 14.1643 13.7935 14.1643Z" fill="currentColor"/>
<path fill-rule="evenodd" clip-rule="evenodd" d="M11.3438 16.6144C10.9297 16.6144 10.5938 16.2784 10.5938 15.8644V10.9644C10.5938 10.5504 10.9297 10.2144 11.3438 10.2144C11.7578 10.2144 12.0938 10.5504 12.0938 10.9644V15.8644C12.0938 16.2784 11.7578 16.6144 11.3438 16.6144Z" fill="currentColor"/>
<path fill-rule="evenodd" clip-rule="evenodd" d="M19.2957 9.48449H16.5417C14.7107 9.47949 13.2227 7.98749 13.2227 6.15949V3.25049C13.2227 2.83649 13.5587 2.50049 13.9727 2.50049C14.3867 2.50049 14.7227 2.83649 14.7227 3.25049V6.15949C14.7227 7.16349 15.5397 7.98149 16.5437 7.98449H19.2957C19.7097 7.98449 20.0457 8.32049 20.0457 8.73449C20.0457 9.14849 19.7097 9.48449 19.2957 9.48449Z" fill="currentColor"/>
</svg>
