<svg width="28" height="28" viewBox="0 0 28 28" fill="none" xmlns="http://www.w3.org/2000/svg">
<path fill-rule="evenodd" clip-rule="evenodd" d="M2.33203 14.0067C2.33203 7.56727 7.56852 2.33331 13.9987 2.33331C20.4289 2.33331 25.6654 7.56727 25.6654 14.0067C25.6654 20.4327 20.4289 25.6666 13.9987 25.6666C7.56852 25.6666 2.33203 20.4327 2.33203 14.0067ZM18.278 15.1875C18.4019 15.0637 18.5595 14.8723 18.5933 14.8273C18.7735 14.5909 18.8636 14.2983 18.8636 14.0067C18.8636 13.6792 18.7622 13.3753 18.5708 13.1277C18.5551 13.112 18.5244 13.0785 18.4843 13.035C18.4094 12.9534 18.3019 12.8364 18.1991 12.7337C17.2757 11.7432 14.8658 10.1223 13.6046 9.62709C13.4131 9.54942 12.9289 9.37946 12.6699 9.36821C12.4221 9.36821 12.1856 9.42449 11.9604 9.53704C11.6789 9.69462 11.4537 9.94225 11.3298 10.2349C11.251 10.4375 11.1271 11.0453 11.1271 11.0566C11.0032 11.7207 10.9356 12.8012 10.9356 13.9944C10.9356 15.1323 11.0032 16.1667 11.1046 16.8421C11.1073 16.8449 11.117 16.8932 11.1321 16.9682C11.1778 17.1963 11.2731 17.6716 11.3748 17.8664C11.6226 18.3391 12.1068 18.6318 12.6248 18.6318H12.6699C13.0077 18.6205 13.7172 18.3278 13.7172 18.3166C14.9109 17.8213 17.2645 16.2793 18.2104 15.255L18.278 15.1875Z" fill="#FF6347"/>
</svg>
