<svg width="20" height="21" viewBox="0 0 20 21" fill="none" xmlns="http://www.w3.org/2000/svg">
<g clip-path="url(#clip0_5450_14353)">
<path fill-rule="evenodd" clip-rule="evenodd" d="M4.72453 4.63343C4.74687 4.44413 4.81311 4.26267 4.91796 4.10349C5.02281 3.94431 5.16339 3.81182 5.32849 3.71656C5.49359 3.62131 5.67865 3.56592 5.86894 3.55481C6.05922 3.54371 6.24947 3.57719 6.42453 3.65259C7.30953 4.03093 9.29286 4.93009 11.8095 6.38259C14.327 7.83593 16.0979 9.10509 16.867 9.68093C17.5237 10.1734 17.5254 11.1501 16.8679 11.6443C16.1062 12.2168 14.357 13.4693 11.8095 14.9409C9.25953 16.4126 7.29953 17.3009 6.42286 17.6743C5.66786 17.9968 4.82286 17.5076 4.72453 16.6934C4.60953 15.7418 4.39453 13.5809 4.39453 10.6626C4.39453 7.74593 4.6087 5.58593 4.72453 4.63343Z" fill="white"/>
</g>
<defs>
<clipPath id="clip0_5450_14353">
<rect width="20" height="20" fill="white" transform="translate(0 0.666748)"/>
</clipPath>
</defs>
</svg>
