<svg width="24" height="24" viewBox="0 0 24 24" fill="none" xmlns="http://www.w3.org/2000/svg">
<path fill-rule="evenodd" clip-rule="evenodd" d="M11.9615 11.8921H11.9925C14.8245 11.8921 17.1285 9.58814 17.1285 6.75614C17.1285 3.92414 14.8245 1.61914 11.9925 1.61914C9.1595 1.61914 6.8555 3.92414 6.8555 6.75314C6.8505 8.12214 7.3795 9.41014 8.3435 10.3811C9.3065 11.3511 10.5915 11.8881 11.9615 11.8921ZM8.3555 6.75614C8.3555 4.75114 9.9875 3.11914 11.9925 3.11914C13.9975 3.11914 15.6285 4.75114 15.6285 6.75614C15.6285 8.76114 13.9975 10.3921 11.9925 10.3921H11.9645C10.9965 10.3901 10.0895 10.0101 9.4075 9.32314C8.7255 8.63714 8.3525 7.72614 8.3555 6.75614Z" fill="none"/>
<path fill-rule="evenodd" clip-rule="evenodd" d="M4.40527 18.7561C4.40527 22.3811 10.1213 22.3811 11.9993 22.3811C13.8773 22.3811 19.5943 22.3811 19.5943 18.7341C19.5943 15.9411 16.1163 13.5811 11.9993 13.5811C7.88327 13.5811 4.40527 15.9511 4.40527 18.7561ZM5.90527 18.7561C5.90527 17.0211 8.51127 15.0811 11.9993 15.0811C15.4883 15.0811 18.0943 17.0101 18.0943 18.7341C18.0943 20.1581 16.0433 20.8811 11.9993 20.8811C7.95627 20.8811 5.90527 20.1661 5.90527 18.7561Z" fill="none"/>
</svg>
