<svg width="24" height="24" viewBox="0 0 24 24" fill="none" xmlns="http://www.w3.org/2000/svg">
<path d="M22.5005 5.25013V9.75013C22.5005 9.94905 22.4215 10.1398 22.2808 10.2805C22.1402 10.4211 21.9494 10.5001 21.7505 10.5001H17.2505C17.0516 10.5001 16.8608 10.4211 16.7202 10.2805C16.5795 10.1398 16.5005 9.94905 16.5005 9.75013C16.5005 9.55122 16.5795 9.36046 16.7202 9.2198C16.8608 9.07915 17.0516 9.00013 17.2505 9.00013H19.8192L17.3264 6.71638L17.303 6.69388C16.2606 5.65184 14.9342 4.94006 13.4896 4.64746C12.045 4.35485 10.5462 4.4944 9.1804 5.04866C7.81463 5.60293 6.64246 6.54734 5.81031 7.76391C4.97817 8.98048 4.52294 10.4153 4.50149 11.8891C4.48005 13.3629 4.89334 14.8103 5.68974 16.0506C6.48615 17.2908 7.63035 18.269 8.97941 18.8627C10.3285 19.4565 11.8226 19.6396 13.2751 19.3891C14.7276 19.1387 16.0741 18.4658 17.1464 17.4545C17.291 17.3178 17.484 17.244 17.6829 17.2496C17.8819 17.2551 18.0705 17.3395 18.2072 17.484C18.344 17.6286 18.4177 17.8216 18.4121 18.0205C18.4066 18.2195 18.3223 18.4081 18.1777 18.5448C16.5103 20.1261 14.2985 21.0053 12.0005 21.0001H11.8767C10.4028 20.9799 8.95628 20.598 7.66446 19.8879C6.37265 19.1777 5.27504 18.1612 4.46811 16.9275C3.66118 15.6938 3.16964 14.2808 3.03668 12.8127C2.90373 11.3446 3.13343 9.86628 3.7056 8.50772C4.27777 7.14916 5.17489 5.95194 6.31811 5.02128C7.46133 4.09063 8.81566 3.45504 10.262 3.17038C11.7084 2.88571 13.2026 2.96069 14.6132 3.38871C16.0239 3.81674 17.3077 4.58471 18.3521 5.62513L21.0005 8.04388V5.25013C21.0005 5.05122 21.0795 4.86046 21.2202 4.7198C21.3608 4.57915 21.5516 4.50013 21.7505 4.50013C21.9494 4.50013 22.1402 4.57915 22.2808 4.7198C22.4215 4.86046 22.5005 5.05122 22.5005 5.25013Z" fill="currentColor"/>
</svg>
