<svg width="25" height="24" viewBox="0 0 25 24" fill="none" xmlns="http://www.w3.org/2000/svg">
<path fill-rule="evenodd" clip-rule="evenodd" d="M17.7817 4.41C17.7817 3.08 18.8617 2 20.1917 2C21.5217 2 22.6017 3.08 22.6017 4.41C22.6017 5.74 21.5217 6.82 20.1917 6.82C18.8617 6.82 17.7817 5.74 17.7817 4.41ZM13.9316 14.7593L16.8216 11.0303L16.7816 11.0503C16.9416 10.8303 16.9716 10.5503 16.8616 10.3003C16.7526 10.0503 16.5116 9.8803 16.2526 9.8603C15.9816 9.8303 15.7126 9.9503 15.5516 10.1703L13.1326 13.3003L10.3616 11.1203C10.1916 10.9903 9.99156 10.9393 9.79156 10.9603C9.59256 10.9903 9.41256 11.0993 9.29156 11.2593L6.33256 15.1103L6.27156 15.2003C6.10156 15.5193 6.18156 15.9293 6.48156 16.1503C6.62156 16.2403 6.77156 16.3003 6.94156 16.3003C7.17256 16.3103 7.39156 16.1893 7.53156 16.0003L10.0416 12.7693L12.8916 14.9103L12.9816 14.9693C13.3016 15.1393 13.7016 15.0603 13.9316 14.7593ZM16.0516 3.7803C16.0116 4.0303 15.9916 4.2803 15.9916 4.5303C15.9916 6.7803 17.8116 8.5993 20.0516 8.5993C20.3016 8.5993 20.5416 8.5703 20.7916 8.5303V16.5993C20.7916 19.9903 18.7916 22.0003 15.3916 22.0003H8.00256C4.60156 22.0003 2.60156 19.9903 2.60156 16.5993V9.2003C2.60156 5.8003 4.60156 3.7803 8.00256 3.7803H16.0516Z" fill="#FF6347"/>
</svg>
