<svg width="20" height="20" viewBox="0 0 20 20" fill="none" xmlns="http://www.w3.org/2000/svg">
<path d="M18.75 11.8749H15.5898C15.6129 11.6674 15.6246 11.4587 15.625 11.2499C15.625 9.75807 15.0324 8.32733 13.9775 7.27244C12.9226 6.21754 11.4918 5.62491 10 5.62491C8.50816 5.62491 7.07742 6.21754 6.02252 7.27244C4.96763 8.32733 4.375 9.75807 4.375 11.2499C4.37535 11.4587 4.38709 11.6674 4.41016 11.8749H1.25C1.08424 11.8749 0.925268 11.9408 0.808058 12.058C0.690848 12.1752 0.625 12.3342 0.625 12.4999C0.625 12.6657 0.690848 12.8246 0.808058 12.9419C0.925268 13.0591 1.08424 13.1249 1.25 13.1249H18.75C18.9158 13.1249 19.0747 13.0591 19.1919 12.9419C19.3092 12.8246 19.375 12.6657 19.375 12.4999C19.375 12.3342 19.3092 12.1752 19.1919 12.058C19.0747 11.9408 18.9158 11.8749 18.75 11.8749ZM5.625 11.2499C5.62385 10.6483 5.74681 10.0529 5.98618 9.5009C6.22555 8.94894 6.57619 8.45227 7.01619 8.04195C7.45619 7.63163 7.97609 7.31646 8.54341 7.11616C9.11072 6.91585 9.71325 6.83471 10.3133 6.8778C10.9134 6.92089 11.4982 7.08729 12.0311 7.3666C12.5639 7.6459 13.0335 8.03211 13.4103 8.50109C13.7872 8.97007 14.0633 9.51174 14.2213 10.0922C14.3794 10.6727 14.416 11.2796 14.3289 11.8749H5.67109C5.64084 11.6679 5.62544 11.4591 5.625 11.2499ZM16.875 15.6249C16.875 15.7907 16.8092 15.9496 16.6919 16.0669C16.5747 16.1841 16.4158 16.2499 16.25 16.2499H3.75C3.58424 16.2499 3.42527 16.1841 3.30806 16.0669C3.19085 15.9496 3.125 15.7907 3.125 15.6249C3.125 15.4592 3.19085 15.3002 3.30806 15.183C3.42527 15.0658 3.58424 14.9999 3.75 14.9999H16.25C16.4158 14.9999 16.5747 15.0658 16.6919 15.183C16.8092 15.3002 16.875 15.4592 16.875 15.6249ZM5.69062 3.4046C5.61645 3.25624 5.60424 3.0845 5.65669 2.92714C5.70914 2.76979 5.82196 2.63972 5.97031 2.56554C6.11867 2.49136 6.29041 2.47915 6.44777 2.53161C6.60512 2.58406 6.7352 2.69687 6.80938 2.84522L7.43438 4.09522C7.4711 4.16868 7.493 4.24866 7.49883 4.33058C7.50465 4.4125 7.49428 4.49477 7.46831 4.57268C7.44234 4.6506 7.40127 4.72263 7.34746 4.78468C7.29365 4.84672 7.22815 4.89756 7.15469 4.93429C7.08123 4.97102 7.00126 4.99292 6.91933 4.99874C6.83741 5.00456 6.75515 4.99419 6.67723 4.96822C6.59932 4.94225 6.52728 4.90118 6.46524 4.84737C6.40319 4.79356 6.35235 4.72806 6.31562 4.6546L5.69062 3.4046ZM1.31563 7.22022C1.35238 7.1468 1.40325 7.08133 1.46532 7.02757C1.52739 6.97381 1.59944 6.93281 1.67736 6.90691C1.75529 6.88101 1.83755 6.87071 1.91945 6.87662C2.00135 6.88252 2.08129 6.90451 2.15469 6.94132L3.40469 7.56632C3.55294 7.6405 3.66565 7.77053 3.71803 7.92781C3.77041 8.08509 3.75816 8.25674 3.68398 8.40499C3.60981 8.55324 3.47977 8.66596 3.32249 8.71833C3.16521 8.77071 2.99356 8.75847 2.84531 8.68429L1.59531 8.05929C1.52182 8.0226 1.45628 7.97178 1.40244 7.90974C1.34859 7.84771 1.30751 7.77566 1.28154 7.69773C1.25556 7.61981 1.2452 7.53752 1.25105 7.45559C1.2569 7.37365 1.27884 7.29367 1.31563 7.22022ZM16.3156 8.4046C16.2416 8.25634 16.2295 8.08475 16.2819 7.92755C16.3344 7.77035 16.4471 7.64042 16.5953 7.56632L17.8453 6.94132C17.9187 6.90459 17.9986 6.88268 18.0805 6.87684C18.1624 6.871 18.2446 6.88134 18.3225 6.90727C18.4004 6.93321 18.4724 6.97423 18.5344 7.02799C18.5964 7.08176 18.6473 7.14721 18.684 7.22062C18.7207 7.29402 18.7426 7.37394 18.7485 7.45582C18.7543 7.53769 18.744 7.61992 18.718 7.6978C18.6921 7.77567 18.6511 7.84768 18.5973 7.90971C18.5435 7.97173 18.4781 8.02256 18.4047 8.05929L17.1547 8.68429C17.0812 8.72107 17.0013 8.74301 16.9193 8.74886C16.8374 8.75471 16.7551 8.74435 16.6772 8.71838C16.5992 8.6924 16.5272 8.65132 16.4652 8.59748C16.4031 8.54364 16.3523 8.4781 16.3156 8.4046ZM12.5656 4.09522L13.1906 2.84522C13.2648 2.69687 13.3949 2.58406 13.5522 2.53161C13.7096 2.47915 13.8813 2.49136 14.0297 2.56554C14.178 2.63972 14.2909 2.76979 14.3433 2.92714C14.3958 3.0845 14.3836 3.25624 14.3094 3.4046L13.6844 4.6546C13.6102 4.80296 13.4801 4.91577 13.3228 4.96822C13.1654 5.02067 12.9937 5.00847 12.8453 4.93429C12.697 4.86011 12.5841 4.73004 12.5317 4.57268C12.4792 4.41533 12.4914 4.24358 12.5656 4.09522Z" fill="currentColor"/>
</svg>
