<svg width="24" height="24" viewBox="0 0 24 24" fill="none" xmlns="http://www.w3.org/2000/svg">
<path fill-rule="evenodd" clip-rule="evenodd" d="M8.75 11.9998C8.75 13.7918 10.208 15.2498 12 15.2498C13.792 15.2498 15.25 13.7918 15.25 11.9998C15.25 10.2078 13.792 8.74976 12 8.74976C10.208 8.74976 8.75 10.2078 8.75 11.9998ZM10.25 11.9998C10.25 11.0348 11.035 10.2498 12 10.2498C12.965 10.2498 13.75 11.0348 13.75 11.9998C13.75 12.9648 12.965 13.7498 12 13.7498C11.035 13.7498 10.25 12.9648 10.25 11.9998Z" fill="#9E9E9E"/>
<path fill-rule="evenodd" clip-rule="evenodd" d="M8.77451 19.008C8.77451 20.796 10.2215 22.25 11.9995 22.25C13.7775 22.25 15.2245 20.796 15.2245 19.008C15.2245 18.585 15.5045 18.378 15.6255 18.308C15.7445 18.241 16.0555 18.106 16.4115 18.311C17.1565 18.745 18.0245 18.859 18.8565 18.637C19.6905 18.413 20.3875 17.875 20.8185 17.123C21.7055 15.577 21.1755 13.592 19.6385 12.698C19.2795 12.488 19.2405 12.14 19.2405 12C19.2405 11.86 19.2795 11.512 19.6395 11.303C21.1755 10.41 21.7045 8.425 20.8185 6.877C20.3865 6.124 19.6895 5.587 18.8555 5.363C18.0235 5.143 17.1565 5.258 16.4125 5.69C16.0565 5.895 15.7425 5.759 15.6255 5.691C15.5045 5.622 15.2245 5.415 15.2245 4.992C15.2245 3.204 13.7775 1.75 11.9995 1.75C10.2215 1.75 8.77451 3.204 8.77451 4.992C8.77451 5.415 8.49451 5.622 8.37351 5.691C8.25551 5.762 7.9425 5.896 7.58851 5.69C6.8435 5.258 5.97651 5.143 5.14351 5.363C4.30951 5.587 3.61251 6.124 3.18051 6.877C2.29451 8.425 2.82351 10.41 4.35951 11.303C4.71951 11.512 4.75751 11.86 4.75751 12C4.75751 12.139 4.71951 12.488 4.35951 12.697C2.82351 13.592 2.29451 15.577 3.18051 17.123C3.61151 17.875 4.30851 18.412 5.14251 18.637C5.97351 18.859 6.8425 18.744 7.58951 18.31C7.9425 18.105 8.25551 18.241 8.37351 18.308C8.49351 18.378 8.77451 18.585 8.77451 19.008ZM9.12051 17.009C8.7645 16.804 8.37351 16.701 7.98251 16.701C7.58751 16.701 7.19351 16.805 6.83451 17.014C6.43651 17.244 5.97351 17.306 5.53151 17.187C5.08651 17.068 4.71251 16.78 4.48251 16.377C4.00351 15.544 4.28751 14.474 5.11451 13.994C5.83051 13.577 6.25751 12.831 6.25751 12C6.25751 11.169 5.83051 10.423 5.11351 10.006C4.28851 9.525 4.00451 8.457 4.48151 7.623C4.71251 7.22 5.08651 6.931 5.53151 6.812C5.97551 6.696 6.43751 6.757 6.83551 6.987C7.55051 7.403 8.40551 7.404 9.12151 6.992C9.8435 6.576 10.2745 5.829 10.2745 4.992C10.2745 4.031 11.0485 3.25 11.9995 3.25C12.9505 3.25 13.7245 4.031 13.7245 4.992C13.7245 5.828 14.1545 6.575 14.8765 6.991C15.5935 7.404 16.4485 7.401 17.1655 6.987C17.5625 6.757 18.0235 6.694 18.4675 6.812C18.9135 6.931 19.2865 7.22 19.5175 7.623C19.9945 8.457 19.7115 9.526 18.8845 10.006C18.1685 10.423 17.7415 11.169 17.7415 12C17.7415 12.831 18.1685 13.577 18.8845 13.994C19.7115 14.474 19.9955 15.544 19.5175 16.377C19.2865 16.78 18.9135 17.068 18.4675 17.187C18.0245 17.306 17.5625 17.244 17.1655 17.014C16.4505 16.598 15.5945 16.597 14.8775 17.009C14.1555 17.424 13.7245 18.172 13.7245 19.008C13.7245 19.969 12.9505 20.75 11.9995 20.75C11.0485 20.75 10.2745 19.969 10.2745 19.008C10.2745 18.171 9.8435 17.424 9.12051 17.009Z" fill="#9E9E9E"/>
</svg>
