<svg width="25" height="24" viewBox="0 0 25 24" fill="none" xmlns="http://www.w3.org/2000/svg">
<path fill-rule="evenodd" clip-rule="evenodd" d="M20.6016 13.58C20.9592 13.77 21.2352 14.07 21.4293 14.37C21.8075 14.99 21.7768 15.75 21.4089 16.42L20.6935 17.62C20.3154 18.26 19.6103 18.66 18.8847 18.66C18.527 18.66 18.1284 18.56 17.8014 18.36C17.5357 18.19 17.2291 18.13 16.9021 18.13C15.8903 18.13 15.0421 18.96 15.0115 19.95C15.0115 21.1 14.0713 22 12.896 22H11.5061C10.3207 22 9.38047 21.1 9.38047 19.95C9.36003 18.96 8.51181 18.13 7.50007 18.13C7.16282 18.13 6.85624 18.19 6.60075 18.36C6.27372 18.56 5.86494 18.66 5.51747 18.66C4.78166 18.66 4.07651 18.26 3.69839 17.62L2.99324 16.42C2.61511 15.77 2.59468 14.99 2.9728 14.37C3.13631 14.07 3.4429 13.77 3.79037 13.58C4.07651 13.44 4.26047 13.21 4.4342 12.94C4.94518 12.08 4.63859 10.95 3.76993 10.44C2.75819 9.87 2.43116 8.6 3.01368 7.61L3.69839 6.43C4.29112 5.44 5.55835 5.09 6.58031 5.67C7.46941 6.15 8.62422 5.83 9.14542 4.98C9.30894 4.7 9.40091 4.4 9.38047 4.1C9.36003 3.71 9.47245 3.34 9.66662 3.04C10.0447 2.42 10.7295 2.02 11.4755 2H12.9164C13.6727 2 14.3574 2.42 14.7355 3.04C14.9195 3.34 15.0421 3.71 15.0115 4.1C14.991 4.4 15.083 4.7 15.2465 4.98C15.7677 5.83 16.9225 6.15 17.8218 5.67C18.8336 5.09 20.111 5.44 20.6935 6.43L21.3783 7.61C21.971 8.6 21.644 9.87 20.622 10.44C19.7533 10.95 19.4468 12.08 19.968 12.94C20.1315 13.21 20.3154 13.44 20.6016 13.58ZM9.30894 12.01C9.30894 13.58 10.6068 14.83 12.2113 14.83C13.8158 14.83 15.083 13.58 15.083 12.01C15.083 10.44 13.8158 9.18 12.2113 9.18C10.6068 9.18 9.30894 10.44 9.30894 12.01Z" fill="#FF6347"/>
</svg>
