<svg width="28" height="28" viewBox="0 0 28 28" fill="currentColor" xmlns="http://www.w3.org/2000/svg">
<path fill-rule="evenodd" clip-rule="evenodd" d="M13.7108 5.25C13.6047 5.25 13.3433 5.27917 13.2045 5.55683L11.0742 9.81633C10.737 10.4895 10.0872 10.9573 9.33584 11.0647L4.56651 11.7518C4.25151 11.7973 4.14417 12.0307 4.11151 12.1287C4.08234 12.2232 4.03567 12.4635 4.25267 12.6712L7.70134 15.9845C8.25084 16.513 8.50051 17.2748 8.36984 18.0203L7.55784 22.6987C7.50767 22.9915 7.69084 23.1618 7.77251 23.2202C7.85884 23.2855 8.08984 23.415 8.37567 23.2657L12.6398 21.0548C13.3118 20.7083 14.1122 20.7083 14.7818 21.0548L19.0448 23.2645C19.3318 23.4127 19.5628 23.2832 19.6503 23.2202C19.732 23.1618 19.9152 22.9915 19.865 22.6987L19.0507 18.0203C18.92 17.2748 19.1697 16.513 19.7192 15.9845L23.1678 12.6712C23.386 12.4635 23.3393 12.222 23.309 12.1287C23.2775 12.0307 23.1702 11.7973 22.8552 11.7518L18.0858 11.0647C17.3357 10.9573 16.6858 10.4895 16.3487 9.81517L14.216 5.55683C14.0783 5.27917 13.817 5.25 13.7108 5.25M8.10734 25.0833C7.62551 25.0833 7.14717 24.9317 6.73767 24.633C6.03067 24.115 5.68417 23.2598 5.83467 22.3988L6.64667 17.7205C6.67701 17.5467 6.61751 17.3705 6.48917 17.2468L3.04051 13.9335C2.40584 13.3257 2.17834 12.4273 2.44667 11.5932C2.71734 10.7497 3.43367 10.1465 4.31684 10.0205L9.08617 9.33333C9.27051 9.30767 9.42917 9.1945 9.50851 9.0335L11.64 4.77283C12.0332 3.98767 12.8265 3.5 13.7108 3.5V3.5C14.5952 3.5 15.3885 3.98767 15.7817 4.77283L17.9143 9.03233C17.9948 9.1945 18.1523 9.30767 18.3355 9.33333L23.1048 10.0205C23.988 10.1465 24.7043 10.7497 24.975 11.5932C25.2433 12.4273 25.0147 13.3257 24.38 13.9335L20.9313 17.2468C20.803 17.3705 20.7447 17.5467 20.775 17.7193L21.5882 22.3988C21.7375 23.261 21.391 24.1162 20.6828 24.633C19.9653 25.1592 19.0308 25.2303 18.2387 24.8173L13.9768 22.6088C13.81 22.5225 13.6105 22.5225 13.4437 22.6088L9.18184 24.8185C8.84117 24.9958 8.47367 25.0833 8.10734 25.0833" fill="currentColor"/>
</svg>
