<svg width="28" height="28" viewBox="0 0 28 28" fill="none" xmlns="http://www.w3.org/2000/svg">
<path fill-rule="evenodd" clip-rule="evenodd" d="M12.491 4.1054C11.709 4.1054 11.0436 4.64885 10.8569 5.38134H17.1367C16.9499 4.64885 16.2846 4.1054 15.5025 4.1054H12.491ZM18.9109 5.38134H21.222C23.6733 5.38134 25.6693 7.40158 25.6693 9.88258C25.6693 9.88258 25.5992 10.9329 25.5759 12.3955C25.5736 12.5113 25.5175 12.6247 25.4253 12.6932C24.8639 13.1079 24.3503 13.4505 24.3036 13.4741C22.366 14.7737 20.1143 15.6881 17.7156 16.143C17.5592 16.1737 17.4051 16.0922 17.3258 15.9528C16.6534 14.7879 15.3975 14.0294 13.9968 14.0294C12.6054 14.0294 11.3378 14.7796 10.6456 15.9457C10.5651 16.0827 10.4133 16.1619 10.2581 16.1323C7.87921 15.6763 5.62758 14.7631 3.70162 13.4859L2.58106 12.7062C2.48768 12.6471 2.42932 12.5408 2.42932 12.4227C2.3943 11.8201 2.33594 9.88258 2.33594 9.88258C2.33594 7.40158 4.33194 5.38134 6.78316 5.38134H9.08264C9.30442 3.66827 10.7401 2.33325 12.491 2.33325H15.5025C17.2534 2.33325 18.6891 3.66827 18.9109 5.38134ZM25.2724 14.951L25.2257 14.9747C22.8679 16.5578 20.0315 17.6092 17.055 18.0464C16.6348 18.1054 16.2145 17.8337 16.0978 17.4084C15.841 16.4396 15.0123 15.8017 14.0201 15.8017H14.0084H13.9851C12.9929 15.8017 12.1642 16.4396 11.9074 17.4084C11.7907 17.8337 11.3705 18.1054 10.9502 18.0464C7.97376 17.6092 5.13734 16.5578 2.77949 14.9747C2.76782 14.9628 2.6511 14.892 2.55772 14.951C2.45266 15.0101 2.45266 15.1519 2.45266 15.1519L2.53437 21.1772C2.53437 23.6582 4.5187 25.6666 6.96992 25.6666H21.0236C23.4748 25.6666 25.4592 23.6582 25.4592 21.1772L25.5525 15.1519C25.5525 15.1519 25.5525 15.0101 25.4475 14.951C25.3891 14.9156 25.3191 14.9274 25.2724 14.951ZM14.8722 19.9012C14.8722 20.3974 14.487 20.7873 13.9968 20.7873C13.5182 20.7873 13.1213 20.3974 13.1213 19.9012V18.3772C13.1213 17.8928 13.5182 17.4911 13.9968 17.4911C14.487 17.4911 14.8722 17.8928 14.8722 18.3772V19.9012Z" fill="currentColor"/>
</svg>
