<svg width="28" height="28" viewBox="0 0 28 28" fill="none" xmlns="http://www.w3.org/2000/svg">
<path d="M26.612 14.875L15.75 4.01298C15.5881 3.84977 15.3954 3.72037 15.183 3.63231C14.9706 3.54425 14.7429 3.49927 14.513 3.50001H4.37501C4.14294 3.50001 3.92038 3.5922 3.75629 3.75629C3.5922 3.92038 3.50001 4.14294 3.50001 4.37501V14.513C3.49927 14.7429 3.54425 14.9706 3.63231 15.183C3.72037 15.3954 3.84977 15.5881 4.01298 15.75L14.875 26.612C15.0375 26.7746 15.2305 26.9035 15.4428 26.9915C15.6551 27.0795 15.8827 27.1247 16.1126 27.1247C16.3424 27.1247 16.57 27.0795 16.7824 26.9915C16.9947 26.9035 17.1877 26.7746 17.3502 26.612L26.612 17.3502C26.7746 17.1877 26.9035 16.9947 26.9915 16.7824C27.0795 16.57 27.1247 16.3424 27.1247 16.1126C27.1247 15.8827 27.0795 15.6551 26.9915 15.4428C26.9035 15.2305 26.7746 15.0375 26.612 14.875ZM9.18751 10.5C8.92792 10.5 8.67416 10.423 8.45832 10.2788C8.24248 10.1346 8.07426 9.92961 7.97492 9.68978C7.87558 9.44995 7.84959 9.18605 7.90023 8.93145C7.95087 8.67685 8.07587 8.44299 8.25943 8.25943C8.44299 8.07587 8.67685 7.95087 8.93145 7.90023C9.18605 7.84959 9.44995 7.87558 9.68978 7.97492C9.92961 8.07426 10.1346 8.24248 10.2788 8.45832C10.423 8.67416 10.5 8.92792 10.5 9.18751C10.5 9.53561 10.3617 9.86944 10.1156 10.1156C9.86944 10.3617 9.53561 10.5 9.18751 10.5Z" fill="currentColor"/>
</svg>
