<svg width="28" height="28" viewBox="0 0 28 28" fill="none" xmlns="http://www.w3.org/2000/svg">
<path d="M14.0013 8.16667C14.4628 8.16667 14.9139 8.02982 15.2976 7.77343C15.6813 7.51704 15.9804 7.15262 16.157 6.72626C16.3336 6.2999 16.3798 5.83075 16.2898 5.37812C16.1998 4.9255 15.9775 4.50974 15.6512 4.18342C15.3249 3.8571 14.9091 3.63487 14.4565 3.54484C14.0039 3.4548 13.5347 3.50101 13.1084 3.67762C12.682 3.85422 12.3176 4.15329 12.0612 4.537C11.8048 4.92072 11.668 5.37184 11.668 5.83333C11.668 6.45217 11.9138 7.04567 12.3514 7.48325C12.789 7.92084 13.3825 8.16667 14.0013 8.16667ZM14.0013 19.8333C13.5398 19.8333 13.0887 19.9702 12.705 20.2266C12.3213 20.483 12.0222 20.8474 11.8456 21.2737C11.669 21.7001 11.6228 22.1693 11.7128 22.6219C11.8028 23.0745 12.0251 23.4903 12.3514 23.8166C12.6777 24.1429 13.0935 24.3651 13.5461 24.4552C13.9987 24.5452 14.4679 24.499 14.8942 24.3224C15.3206 24.1458 15.685 23.8467 15.9414 23.463C16.1978 23.0793 16.3346 22.6282 16.3346 22.1667C16.3346 21.5478 16.0888 20.9543 15.6512 20.5168C15.2136 20.0792 14.6201 19.8333 14.0013 19.8333ZM14.0013 11.6667C13.5398 11.6667 13.0887 11.8035 12.705 12.0599C12.3213 12.3163 12.0222 12.6807 11.8456 13.1071C11.669 13.5334 11.6228 14.0026 11.7128 14.4552C11.8028 14.9078 12.0251 15.3236 12.3514 15.6499C12.6777 15.9762 13.0935 16.1985 13.5461 16.2885C13.9987 16.3785 14.4679 16.3323 14.8942 16.1557C15.3206 15.9791 15.685 15.68 15.9414 15.2963C16.1978 14.9126 16.3346 14.4615 16.3346 14C16.3346 13.3812 16.0888 12.7877 15.6512 12.3501C15.2136 11.9125 14.6201 11.6667 14.0013 11.6667Z" fill="currentColor"/>
</svg>
