<svg width="25" height="24" viewBox="0 0 25 24" fill="none" xmlns="http://www.w3.org/2000/svg">
<path fill-rule="evenodd" clip-rule="evenodd" d="M12.8008 3.5C8.11378 3.5 4.30078 7.313 4.30078 12C4.30078 16.687 8.11378 20.5 12.8008 20.5C17.4878 20.5 21.3008 16.687 21.3008 12C21.3008 7.313 17.4878 3.5 12.8008 3.5ZM12.8008 22C7.28678 22 2.80078 17.514 2.80078 12C2.80078 6.486 7.28678 2 12.8008 2C18.3148 2 22.8008 6.486 22.8008 12C22.8008 17.514 18.3148 22 12.8008 22Z" fill="#9E9E9E"/>
<path fill-rule="evenodd" clip-rule="evenodd" d="M16.2309 15.6925C16.0999 15.6925 15.9679 15.6585 15.8469 15.5875L12.0769 13.3385C11.8509 13.2025 11.7109 12.9575 11.7109 12.6935V7.84546C11.7109 7.43146 12.0469 7.09546 12.4609 7.09546C12.8759 7.09546 13.2109 7.43146 13.2109 7.84546V12.2675L16.6159 14.2975C16.9709 14.5105 17.0879 14.9705 16.8759 15.3265C16.7349 15.5615 16.4859 15.6925 16.2309 15.6925Z" fill="#9E9E9E"/>
</svg>
