<svg width="25" height="24" viewBox="0 0 25 24" fill="none" xmlns="http://www.w3.org/2000/svg">
<path fill-rule="evenodd" clip-rule="evenodd" d="M12.8008 22.0001C7.28078 22.0001 2.80078 17.5301 2.80078 12.0001C2.80078 6.48012 7.28078 2.00012 12.8008 2.00012C18.3308 2.00012 22.8008 6.48012 22.8008 12.0001C22.8008 17.5301 18.3308 22.0001 12.8008 22.0001ZM15.9908 15.7101C16.1108 15.7801 16.2408 15.8201 16.3808 15.8201C16.6308 15.8201 16.8808 15.6901 17.0208 15.4501C17.2308 15.1001 17.1208 14.6401 16.7608 14.4201L13.2008 12.3001V7.68012C13.2008 7.26012 12.8608 6.93012 12.4508 6.93012C12.0408 6.93012 11.7008 7.26012 11.7008 7.68012V12.7301C11.7008 12.9901 11.8408 13.2301 12.0708 13.3701L15.9908 15.7101Z" fill="#FF6347"/>
</svg>
