<svg width="12" height="9" viewBox="0 0 12 9" fill="none" xmlns="http://www.w3.org/2000/svg">
<path d="M11.3854 1.55024L4.78545 8.15024C4.72796 8.20792 4.65966 8.25369 4.58445 8.28492C4.50924 8.31615 4.4286 8.33223 4.34717 8.33223C4.26573 8.33223 4.1851 8.31615 4.10989 8.28492C4.03468 8.25369 3.96637 8.20792 3.90889 8.15024L1.02139 5.26274C0.96383 5.20518 0.918174 5.13685 0.887025 5.06165C0.855876 4.98645 0.839844 4.90585 0.839844 4.82446C0.839844 4.74306 0.855876 4.66246 0.887025 4.58726C0.918174 4.51206 0.96383 4.44373 1.02139 4.38618C1.07894 4.32862 1.14727 4.28296 1.22247 4.25181C1.29767 4.22067 1.37827 4.20463 1.45967 4.20463C1.54106 4.20463 1.62166 4.22067 1.69686 4.25181C1.77206 4.28296 1.84039 4.32862 1.89795 4.38618L4.34768 6.83591L10.5099 0.674706C10.6262 0.558467 10.7838 0.493164 10.9482 0.493164C11.1126 0.493164 11.2702 0.558467 11.3865 0.674706C11.5027 0.790945 11.568 0.9486 11.568 1.11299C11.568 1.27737 11.5027 1.43503 11.3865 1.55127L11.3854 1.55024Z" fill="white"/>
</svg>
